<?xml version="1.0" encoding="UTF-8"?>
<svg xmlns="http://www.w3.org/2000/svg" xmlns:xlink="http://www.w3.org/1999/xlink" width="454px" height="96px" viewBox="0 0 454 96" version="1.1">
    
    <title>The_Grand_Tour_Logo</title>
    <desc>Created with Sketch.</desc>
    <g id="Page-1" stroke="none" stroke-width="1" fill="none" fill-rule="evenodd">
        <g id="The_Grand_Tour_Logo">
            <path d="M106.718,29.03 L112.976,29.03 L113.556,25.446 L97.202,25.446 L96.622,29.03 L102.847,29.03 L99.493,48.46 L103.363,48.46 L106.718,29.03 L106.718,29.03 Z M116.603,33.239 L118.152,24.46 L114.442,24.46 L110.281,48.461 L113.991,48.461 L116.248,35.343 C117.055,34.883 117.829,34.553 118.571,34.291 C119.313,34.061 120.248,33.929 121.41,33.929 C122.055,33.929 122.474,34.028 122.668,34.225 C122.861,34.422 122.893,34.784 122.828,35.277 L120.538,48.461 L124.248,48.461 L126.57,34.981 C126.829,33.469 126.635,32.351 126.054,31.627 C125.474,30.904 124.312,30.542 122.635,30.542 C121.861,30.542 121.184,30.608 120.603,30.74 C120.065785,30.8613153 119.54578,31.0490951 119.055,31.299 C118.603,31.562 118.152,31.825 117.765,32.154 C117.377,32.482 116.99,32.844 116.603,33.239 L116.603,33.239 Z M138.424,30.707 L132.94,30.707 C131.52,30.707 130.392,31.068 129.586,31.759 C128.779,32.482 128.263,33.567 128.006,35.047 L126.456,44.121 C126.199,45.633 126.328,46.718 126.908,47.409 C127.457,48.132 128.457,48.461 129.876,48.461 L135.359,48.461 C136.779,48.461 137.875,48.132 138.682,47.409 C139.488,46.719 140.037,45.633 140.295,44.121 L140.52,42.741 L136.811,42.741 L136.585,44.088 C136.488,44.548 136.327,44.878 136.134,45.075 C135.94,45.272 135.618,45.338 135.198,45.338 L131.134,45.338 C130.682,45.338 130.392,45.272 130.263,45.075 C130.102,44.877 130.069,44.548 130.166,44.088 L130.779,40.603 L140.908,40.603 L141.843,35.047 C142.101,33.567 141.94,32.482 141.392,31.759 C140.812,31.069 139.843,30.707 138.424,30.707 L138.424,30.707 Z M138.166,35.08 L137.65,37.94 L131.23,37.94 L131.714,35.08 C131.779,34.62 131.94,34.323 132.134,34.126 C132.327,33.929 132.65,33.83 133.101,33.83 L137.166,33.83 C137.586,33.83 137.876,33.929 138.036,34.126 C138.166,34.323 138.23,34.619 138.166,35.08 L138.166,35.08 Z M159.303,30.28 L158.883,32.778 L162.755,32.778 L163.206,30.049 C163.722,26.992 162.496,25.446 159.561,25.446 L152.175,25.446 C149.207,25.446 147.498,26.992 146.981,30.049 L144.594,43.859 C144.046,46.949 145.24,48.462 148.207,48.462 L155.594,48.462 C158.529,48.462 160.271,46.949 160.819,43.859 L162.174,36.034 L153.659,36.034 L153.046,39.519 L157.691,39.519 L156.981,43.629 C156.884,44.089 156.755,44.385 156.561,44.582 C156.368,44.779 156.045,44.845 155.626,44.845 L149.433,44.845 C148.981,44.845 148.691,44.779 148.563,44.582 C148.435,44.385 148.401,44.089 148.498,43.629 L150.82,30.279 C150.885,29.852 151.014,29.556 151.207,29.359 C151.401,29.162 151.723,29.063 152.175,29.063 L158.368,29.063 C158.788,29.063 159.078,29.162 159.207,29.359 C159.336,29.556 159.367,29.852 159.303,30.279 L159.303,30.28 Z M172.556,34.29 L174.395,34.29 L175.007,30.707 L173.685,30.707 C172.395,30.707 171.362,30.97 170.556,31.496 C169.698292,32.0362215 168.907759,32.6763688 168.201,33.403 L168.685,30.707 L164.975,30.707 L161.911,48.462 L165.621,48.462 L167.814,35.672 C168.537258,35.2706067 169.292504,34.9297761 170.072,34.653 C170.782,34.423 171.621,34.291 172.556,34.291 L172.556,34.29 Z" id="Shape" fill="#000000" fill-rule="nonzero"/>
            <path d="M179.707,30.575 C177.901,30.575 176.579,30.937 175.74,31.66 C174.901,32.384 174.32,33.567 174.03,35.146 L172.514,44.023 C172.224,45.633 172.385,46.785 172.998,47.508 C173.578,48.231 174.772,48.593 176.578,48.593 C177.353,48.593 178.062,48.527 178.675,48.396 C179.255,48.264 179.805,48.1 180.288,47.836 C180.74,47.606 181.191,47.311 181.578,46.982 C181.965,46.653 182.385,46.292 182.772,45.897 L182.352,48.461 L186.03,48.461 L189.094,30.707 L185.417,30.707 L184.965,33.271 C184.707,32.876 184.417,32.515 184.159,32.186 C183.863731,31.8592753 183.527637,31.5719145 183.159,31.331 C182.716034,31.0752218 182.237454,30.886823 181.739,30.772 C181.159,30.641 180.482,30.575 179.707,30.575 Z M176.256,43.726 L177.676,35.441 C177.772,34.882 177.966,34.488 178.224,34.291 C178.482,34.093 178.998,33.961 179.772,33.961 C180.352,33.961 180.901,33.994 181.352,34.061 C181.804,34.126 182.191,34.225 182.578,34.323 C182.965,34.455 183.32,34.586 183.643,34.783 L184.61,35.375 L183.159,43.792 C182.32,44.252 181.546,44.614 180.772,44.844 C179.998,45.107 178.998,45.206 177.836,45.206 C177.062,45.206 176.578,45.107 176.385,44.91 C176.191,44.713 176.127,44.318 176.255,43.726 L176.256,43.726 Z M194.337,33.239 L194.788,30.707 L191.079,30.707 L188.015,48.462 L191.725,48.462 L193.982,35.343 C194.722797,34.9232341 195.499945,34.571141 196.304,34.291 C197.046,34.061 197.982,33.929 199.143,33.929 C199.788,33.929 200.207,34.028 200.401,34.225 C200.595,34.423 200.627,34.785 200.562,35.277 L198.272,48.462 L201.982,48.462 L204.304,34.982 C204.562,33.469 204.368,32.352 203.788,31.628 C203.208,30.905 202.046,30.543 200.368,30.543 C199.595,30.543 198.918,30.609 198.337,30.74 C197.799397,30.8615542 197.279049,31.0496722 196.788,31.3 C196.337,31.562 195.885,31.825 195.498,32.154 C195.111,32.483 194.724,32.844 194.337,33.239 L194.337,33.239 Z M211.413,30.575 C209.607,30.575 208.284,30.937 207.445,31.66 C206.607,32.384 206.026,33.567 205.735,35.146 L204.22,44.023 C203.93,45.633 204.09,46.785 204.704,47.508 C205.284,48.231 206.478,48.593 208.284,48.593 C209.058,48.593 209.768,48.527 210.381,48.396 C210.961,48.264 211.51,48.1 211.994,47.836 C212.455132,47.6014096 212.88794,47.3148836 213.284,46.982 C213.671,46.653 214.09,46.292 214.477,45.897 L214.057,48.461 L217.735,48.461 L221.896,24.461 L218.219,24.461 L216.671,33.271 C216.413,32.877 216.122,32.515 215.864,32.186 C215.568669,31.8596275 215.232577,31.572605 214.864,31.332 C214.421403,31.0759655 213.943164,30.8872312 213.445,30.772 C212.865,30.642 212.187,30.575 211.413,30.575 L211.413,30.575 Z M207.962,43.726 L209.381,35.441 C209.478,34.882 209.671,34.488 209.929,34.291 C210.187,34.093 210.703,33.961 211.478,33.961 C212.058,33.961 212.607,33.994 213.058,34.061 C213.51,34.126 213.897,34.225 214.284,34.323 C214.671,34.455 215.026,34.586 215.348,34.783 L216.316,35.375 L214.864,43.792 C214.026,44.252 213.252,44.614 212.477,44.844 C211.703,45.107 210.703,45.206 209.542,45.206 C208.768,45.206 208.284,45.107 208.091,44.91 C207.897,44.713 207.832,44.318 207.961,43.726 L207.962,43.726 Z M233.937,29.03 L240.194,29.03 L240.775,25.446 L224.421,25.446 L223.841,29.03 L230.066,29.03 L226.711,48.46 L230.582,48.46 L233.937,29.03 L233.937,29.03 Z" id="Shape" fill="#000000" fill-rule="nonzero"/>
            <path d="M247.655,30.707 L241.978,30.707 C240.558,30.707 239.43,31.068 238.623,31.759 C237.817,32.482 237.301,33.567 237.043,35.047 L235.494,44.121 C235.236,45.633 235.365,46.718 235.946,47.409 C236.494,48.132 237.494,48.461 238.914,48.461 L244.591,48.461 C246.01,48.461 247.107,48.132 247.913,47.409 C248.687,46.719 249.236,45.633 249.493,44.121 L251.074,35.047 C251.332,33.567 251.171,32.482 250.623,31.759 C250.042,31.069 249.074,30.707 247.655,30.707 Z M247.365,35.277 L245.881,43.891 C245.784,44.351 245.623,44.681 245.429,44.877 C245.204,45.075 244.881,45.14 244.462,45.14 L240.204,45.14 C239.752,45.14 239.462,45.075 239.333,44.877 C239.172,44.68 239.139,44.351 239.236,43.891 L240.72,35.277 C240.784,34.817 240.946,34.521 241.14,34.323 C241.333,34.126 241.655,34.027 242.107,34.027 L246.397,34.027 C246.817,34.027 247.107,34.127 247.267,34.323 C247.397,34.521 247.429,34.817 247.365,35.277 L247.365,35.277 Z M260.977,45.93 L260.525,48.461 L264.203,48.461 L267.267,30.706 L263.59,30.706 L261.332,43.825 C260.493,44.285 259.719,44.647 258.945,44.877 C258.171,45.14 257.235,45.239 256.139,45.239 C255.494,45.239 255.074,45.14 254.881,44.943 C254.687,44.746 254.655,44.417 254.751,43.891 L257.01,30.706 L253.332,30.706 L251.01,44.186 C250.72,45.732 250.881,46.85 251.494,47.573 C252.074,48.296 253.236,48.625 254.913,48.625 C255.687,48.625 256.333,48.559 256.913,48.428 C257.493,48.296 258.01,48.132 258.493,47.868 C258.945,47.638 259.397,47.343 259.783,47.014 C260.171,46.685 260.558,46.324 260.977,45.929 L260.977,45.93 Z M276.894,34.29 L278.733,34.29 L279.346,30.707 L278.023,30.707 C276.733,30.707 275.701,30.97 274.894,31.496 C274.036637,32.0362786 273.246442,32.6764243 272.54,33.403 L273.023,30.707 L269.314,30.707 L266.25,48.462 L269.96,48.462 L272.153,35.672 C272.875937,35.2706569 273.630846,34.9298272 274.41,34.653 C275.12,34.423 275.959,34.291 276.894,34.291 L276.894,34.29 Z" id="Shape" fill="#000000" fill-rule="nonzero"/>
            <path d="M30.182,0.047 C19.016,0.064 14.52,7.16 13.566,14.037 L201.656,14.037 L203.876,0.047 L30.176,0.047 L30.182,0.047 Z M207.882,0.236 L205.942,14.227 L451.672,14.227 L453.892,0.236 L207.882,0.236 L207.882,0.236 Z M286.432,20.414 L284.492,34.404 L365.252,34.404 L367.462,20.414 L286.432,20.414 Z M11.782,20.711 L9.843,34.701 L90.601,34.701 L92.815,20.711 L11.782,20.711 L11.782,20.711 Z M282.712,41.18 L280.772,55.17 L361.532,55.17 L363.742,41.18 L282.712,41.18 L282.712,41.18 Z M8.452,41.375 L6.513,55.365 L87.269,55.365 L89.485,41.375 L8.452,41.375 L8.452,41.375 Z M148.522,60.965 L146.582,74.955 L191.342,74.955 L193.552,60.965 L148.522,60.965 Z M4.542,61.355 L2.603,75.348 L83.359,75.348 L85.575,61.355 L4.542,61.355 L4.542,61.355 Z M279.582,61.355 L277.642,75.348 L358.402,75.348 L360.622,61.355 L279.582,61.355 Z M275.662,81.533 L273.732,95.52 L342.512,95.52 C349.262,95.52 354.952,89.31 356.702,81.533 L275.662,81.533 L275.662,81.533 Z M1.102,81.619 C0.359,87.315 1.099,94.95 10.319,94.95 L175.439,94.95 C185.029,94.95 188.149,89.69 189.489,81.619 L1.109,81.619 L1.102,81.619 Z" id="Shape" fill="#E74801"/>
        </g>
    </g>
</svg>
