<?xml version="1.0" encoding="UTF-8" standalone="no"?>
<svg xmlns:dc="http://purl.org/dc/elements/1.1/" xmlns:cc="http://creativecommons.org/ns#" xmlns:rdf="http://www.w3.org/1999/02/22-rdf-syntax-ns#" xmlns:svg="http://www.w3.org/2000/svg" xmlns="http://www.w3.org/2000/svg" xmlns:sodipodi="http://sodipodi.sourceforge.net/DTD/sodipodi-0.dtd" xmlns:inkscape="http://www.inkscape.org/namespaces/inkscape" version="1.1" id="Layer_1" x="0px" y="0px" width="999.99902" height="928.07599" viewBox="0 0 999.99902 928.07596" enable-background="new 0 0 1000 928.077" xml:space="preserve"><metadata id="metadata15"/><defs id="defs13"/>
<g id="g8" style="fill:#ffffff">
	<path fill-rule="evenodd" clip-rule="evenodd" d="m 667.649,160.742 7.457,74.095 c 0,2.121 -1.548,4.643 -7.22,11.768 -4.057,5.08 -6.819,8.394 -8.313,9.967 l -51.232,53.813 -8.271,9.432 c -5.556,6.348 -6.001,7.02 -7.64,12 -0.822,2.445 -1.439,4.893 -1.873,7.277 l -7.504,41.526 c -0.104,0.579 -0.191,1.396 -0.292,2.509 -0.188,2.348 -0.36,4.026 -0.497,5.035 -0.24,1.726 -0.357,3.082 -0.357,4.053 0,2.276 1.203,3.94 4.51,6.152 5.172,3.494 6.662,4.277 8.098,4.277 0.501,0 1.034,-0.36 1.166,-0.806 l 20.896,-64.783 c 1.279,-3.999 1.813,-4.767 3.211,-4.767 0.73,0 1.652,0.274 2.75,0.768 0.654,0.313 1.106,0.638 1.375,0.994 0.116,0.152 0.172,0.345 0.172,0.573 0,0.592 -0.172,1.565 -0.533,2.862 l -13.828,50.659 c -0.73,2.682 -1.34,5.542 -1.84,8.555 -0.225,1.425 -0.342,2.396 -0.342,2.94 0,5.179 1.695,9.616 3.861,10.155 0.588,-0.806 0.934,-1.307 1.069,-1.531 0.513,-0.916 1.371,-2.98 2.577,-6.157 1.604,-4.232 3.508,-7.578 8.899,-15.619 2.962,-4.396 5.163,-7.528 6.586,-9.346 l 7.091,-8.973 6.936,-9.109 6.558,-7.741 c 1.331,-1.585 2.417,-2.939 3.243,-4.048 2.289,-3.111 3.668,-4.165 5.443,-4.165 2.67,0 5.215,1.09 5.215,2.229 0,0.274 -0.12,0.562 -0.349,0.944 l -0.682,1.104 -0.866,1.775 c -0.34,0.703 -1.756,2.733 -4.225,6.077 -0.369,0.513 -1.736,2.573 -4.08,6.192 l -8.062,12.409 -2.217,4.08 -1.083,1.842 -1.326,2.373 -4.846,7.755 c -0.594,0.939 -1.568,2.77 -2.923,5.516 -1.034,2.082 -1.992,3.818 -2.847,5.255 -4.152,6.805 -6.328,12.018 -6.328,15.034 0,0.32 0.236,1.225 0.673,2.71 0.329,1.096 0.745,2.118 1.255,3.095 0.789,1.479 1.936,2.404 2.93,2.404 0.613,0 1.238,-0.34 2.249,-1.271 l 54.965,-50.07 2.554,-2.405 1.855,-3.168 2.369,-3.883 1.17,-2.309 1.139,-2.331 c 0.862,-1.735 1.527,-2.221 3.063,-2.221 1.355,0 2.089,0.419 3.396,1.872 l -7.3,41.696 -4.148,24.477 0.425,5.061 c 0.173,2.08 0.269,3.215 0.309,3.321 0.249,1.034 1.219,3.054 2.902,6.004 l 1.282,2.251 5.913,7.02 6.37,6.756 6.529,6.576 c 5.98,5.992 7.523,7.117 9.832,7.117 15.133,0 29.615,-9.338 45.309,-29.227 2.895,-3.646 5.184,-6.415 6.879,-8.287 3.716,-4.093 5.793,-7.147 5.793,-8.5 0,-1.626 -2.698,-2.468 -8.193,-2.562 -2.394,-0.038 -7.416,-0.876 -14.996,-2.521 -2.221,-0.479 -5.576,-1.104 -10.109,-1.872 l 1.743,-41.033 6.073,-2.752 6.186,-2.499 3.743,-1.567 c 0.36,-0.152 1.034,-0.234 1.988,-0.234 0.729,0 1.435,0.066 2.068,0.152 l 71.456,11.414 c 1.215,0.185 1.892,0.284 2.044,0.284 0.136,0 0.401,-0.062 0.786,-0.156 0.488,-6.457 0.75,-11.321 0.75,-14.551 0,-8.887 -1.637,-23.824 -3.561,-32.669 -2.505,-11.515 -6.93,-22.556 -13.088,-32.688 -0.648,-1.042 -1.046,-1.748 -1.238,-2.08 l -1.463,-2.636 c -0.95,-1.674 -2.205,-3.439 -3.748,-5.226 l -11.424,-13.262 c -9.901,-11.501 -13.045,-16.604 -16.26,-26.324 -3.723,-11.292 -5.631,-25.025 -5.631,-40.328 l 0.072,-48.53 h 22.006 c 0,0 -0.669,36.864 -0.669,39.121 0,13.041 0.974,29.065 2.085,34.669 0.652,3.264 1.967,7.833 3.912,13.631 1.972,5.839 2.236,6.31 5.311,9.741 l 5.424,-4.03 5.256,-4.231 c 3.406,-2.756 5.146,-4.171 5.234,-4.241 3.074,-2.828 4.609,-3.894 5.637,-3.894 1.142,0 3.117,0.647 5.715,1.907 0.971,0.472 2.919,1.141 5.809,2.041 0.91,0.29 4.787,1.661 11.625,4.104 l 11.593,4.161 11.813,4.24 -0.826,1.359 -40.69,40.193 c -0.931,0.914 -1.447,2.331 -1.447,3.92 0,1.239 0.169,3.3 0.517,6.182 l 1.007,8.483 10.566,61.974 0.825,1.58 85.614,13.616 c 1.399,0.233 2.157,0.386 4.149,0.828 l -1.323,2.62 -27.415,44.725 -3.033,-0.301 -61.66,-9.839 -9.684,7.606 -9.934,7.273 -13.625,9.979 -36.012,24.579 -4.826,2.733 -2.061,1.198 -7.359,4.205 c -1.965,1.133 -3.528,1.72 -4.526,1.72 -3.435,0 -9.517,-6.646 -13.108,-14.343 -0.656,-1.437 -1.21,-1.954 -2.035,-1.954 -1.111,0 -2.639,0.367 -4.486,1.089 -0.881,0.341 -2.225,0.768 -4.016,1.305 l -8.158,2.385 c -3.291,0.96 -6.189,1.453 -8.598,1.453 -3.131,0 -5.159,-1.034 -10.366,-5.233 -0.276,-0.214 -2.12,-1.625 -5.56,-4.245 -3.291,-2.479 -6.951,-5.499 -11.004,-9.024 -6.346,-5.534 -9.938,-8.641 -10.755,-9.311 l -5.788,-4.737 -5.904,-5.065 -73.364,64.724 -56.563,-11.73 70.79,-64.371 c -0.257,-1.034 -0.449,-1.625 -0.517,-1.735 -0.518,-0.735 -4.395,-3.457 -11.441,-8.049 l -11.941,-7.755 -4.145,-1.663 -5.792,-2.141 c -5.913,-2.173 -9.124,-4.127 -9.437,-5.706 -2.802,-0.708 -5.992,-6.557 -7.828,-14.389 -0.465,-1.912 -0.578,-2.257 -1.359,-3.891 l -85.056,-14.038 31.495,-39.085 54.921,6.683 h 0.128 c 1.231,0 1.72,-1.371 2.181,-6.117 0.192,-1.872 1.15,-5.281 2.998,-10.58 0.826,-2.365 1.552,-4.065 2.148,-5.062 1.488,-2.501 4.293,-5.846 8.362,-9.971 1.812,-1.852 3.439,-3.285 4.831,-4.315 l 5.219,-3.844 20.17,-16.006 18.645,-16.518 3.947,-4.818 4.311,-4.527 c 0.528,-0.549 1.755,-2.253 3.659,-5.057 1.647,-2.428 3.022,-4.548 4.089,-6.348 0.857,-1.427 2.328,-4.203 4.393,-8.281 4.361,-8.608 5.079,-10.817 6.246,-18.925 0.284,-2.04 0.445,-3.505 0.445,-4.391 0,-2.401 -0.445,-5.82 -1.308,-10.216 l -9.052,-46.052 h 17.147 z M 589.315,637.665 V 514.202 h 5.98 v 119.987 l 51.369,-29.785 0.189,97.459 10.354,0.126 0.036,0.501 0.14,0.857 0.088,50.443 -10.137,0.279 -0.272,146.593 c 0,10.688 5.423,20.74 11.171,20.74 2.834,0 4.883,-6.494 4.883,-15.417 l -0.869,-281.847 -0.305,-3.463 -0.498,-5.953 c -0.453,-5.447 -4.453,-10.363 -9.564,-11.788 l -1.859,-0.518 62.521,-36.269 -0.325,142.224 c 1.339,-0.816 2.333,-1.425 2.986,-1.853 1.691,-1.078 2.71,-1.731 3.059,-1.943 4.161,-2.483 9.03,-3.79 14.058,-3.79 0.605,0 1.487,0.025 2.594,0.046 1.11,0.016 2.309,0.036 3.611,0.036 1.463,0 2.734,-0.021 3.801,-0.057 3.555,-0.132 5.588,-0.19 6.088,-0.19 7.842,0 15.021,2.887 20.119,8.1 3.996,4.089 5.885,7.696 6.955,13.356 0.914,4.848 1.771,12.376 1.852,16.234 l 2.786,151.592 c 0.136,7.051 2.145,15.589 4.646,19.62 1.318,2.134 3.74,4.942 7.248,8.361 l 0.961,0.96 c 2.871,2.808 3.524,3.247 6.578,4.355 0.931,0.337 2.33,0.861 4.186,1.569 v 0.299 h -67.72 c -2.329,0 -4.646,-1.732 -6.397,-4.807 -1.436,-2.487 -2.186,-5.237 -2.197,-7.963 l -0.938,-153.131 c -0.041,-6.854 -2.826,-11.19 -7.184,-11.19 -3.459,0 -6.266,2.578 -6.266,5.751 v 149.318 c 0,9.398 3.512,18.207 8.134,20.38 l 1.952,0.92 c 0.537,0.246 0.689,0.335 0.689,0.438 0,0.135 -0.361,0.263 -0.766,0.283 l -0.613,0.023 h -0.108 l -1.724,-0.023 -94.957,-0.095 c -4.999,0 -9.549,-0.402 -13.866,-1.223 -4.758,-0.892 -6.767,-1.91 -9.805,-4.922 -4.028,-3.995 -6.181,-10.168 -6.226,-17.754 l -1.166,-242.994 c -0.04,-7.281 -7.54,-12.502 -17.994,-12.502 h -0.738 l 13.46,-7.91 M 937.15,702.27 V 420.283 h 5.961 v 278.2 l 11.901,-6.74 c 0.264,6.646 0.34,9.467 0.34,13.387 v 7.355 c 0,7.065 0.057,7.721 0.73,7.721 l 0.356,-0.024 c 6.578,-15.204 12.322,-19.748 25.021,-19.735 13.533,0.025 18.54,6.54 18.54,24.205 l -0.024,2.044 -1.227,50.189 c -0.068,2.762 -0.152,4.577 -0.229,5.436 -0.056,0.501 -0.152,1.267 -0.28,2.252 l -0.617,-0.09 v -0.826 c 0,-4.699 -1.239,-12.546 -3.171,-20.19 -2.309,-9.146 -6.895,-12.871 -15.758,-12.871 -9.459,0 -16.883,6.201 -16.883,14.12 l 0.195,119.898 0.281,7.646 v 2.599 c 0,9.522 5.099,18.868 12.494,22.901 4.258,2.301 10.186,4.396 17.594,6.188 l 4.273,1.026 -113.706,-0.32 -1.937,-0.274 c 0.706,-0.287 1.238,-0.478 1.604,-0.552 0.133,-0.036 0.689,-0.102 1.619,-0.168 4.289,-0.385 9.044,-3.099 13.895,-7.873 5.423,-5.343 9.396,-13.044 9.42,-18.24 l 0.762,-157.252 c 0,-2.988 -1.074,-6.995 -2.594,-9.777 -0.693,-1.244 -1.551,-2.2 -2.469,-2.726 -0.189,-0.118 -1.107,-0.525 -2.767,-1.257 -0.617,-0.254 -1.499,-0.713 -2.646,-1.391 L 937.15,702.27 m -149.088,17.868 h -1.347 V 487.137 h 5.965 v 227.279 l 0.461,-0.575 c 6.683,-8.362 14.407,-11.637 27.386,-11.637 h 0.177 l 43.384,0.152 c 7.846,0.023 15.316,2.24 21.614,6.385 7.913,5.214 10.943,11.896 11.444,25.228 0.1,2.39 0.152,3.847 0.192,4.355 l 0.44,5.793 v 30.658 c 0,14.674 -4.895,26.192 -13.909,32.82 l -28.031,20.577 c -11.925,8.739 -17.542,17.47 -17.542,27.261 0,6.729 1.007,13.901 2.266,16.232 0.518,0.958 1.9,2.196 4,3.605 2.541,1.707 5.5,2.613 8.526,2.613 l 7.275,-0.415 2.017,-0.02 c 8.009,-0.078 16.507,-4.352 21.164,-10.677 1.929,-2.622 3.199,-4.925 4.955,-9.153 3.403,-8.111 4.141,-11.038 5.709,-22.123 0.66,-4.795 1.795,-11.954 3.342,-21.47 l 0.381,0.411 0.037,3.324 0.517,61.351 v 0.417 c 0,3.015 -0.188,7.308 -0.401,8.753 l -1.025,7.281 c -0.922,6.454 -1.255,7.483 -3.572,11.46 -4.036,6.827 -6.613,9.549 -12.246,12.819 -7.668,4.445 -14.29,5.977 -27.09,6.294 l -2.428,0.04 c -9.284,0.098 -15.734,0.152 -19.369,0.152 -10.291,0 -15.47,-0.662 -20.949,-2.69 -1.318,-0.471 -2.773,-1.07 -4.401,-1.755 -2.517,-1.073 -4.104,-1.774 -4.714,-2.139 -2.967,-1.7 -5.904,-4.7 -8.618,-8.769 -0.457,-0.71 -0.741,-1.175 -0.858,-1.399 -1.09,-2.345 -2.064,-6.017 -2.886,-10.927 -0.882,-5.271 -1.312,-9.589 -1.335,-12.894 l -0.531,-165.616 m -290.669,-156.1 v 1.896 h -5.977 v -183.06 h 5.977 v 3.483 l 0.291,0.074 0.25,177.606 h -0.541 m 196.204,-97.592 h 5.961 v 101.874 h -5.961 z m 181.466,-24.772 h 5.961 v 257.781 h -5.961 z M 408.209,763.237 407.048,650.3 l 0.076,-28.717 -0.06,-7.306 c 0,-24.827 15.684,-42.805 37.771,-43.264 l 38.831,-0.822 0.613,-0.016 c 0.353,0 2.479,0.105 6.333,0.364 3.439,0.227 5.997,0.474 7.667,0.76 4.16,0.731 9.416,3.649 13.445,7.492 5.402,5.131 9.095,14.423 9.23,23.167 l 0.565,39.163 -0.24,0.874 -0.021,0.329 v 0.204 l -50.469,30.593 0.267,-46.785 c 0,-7.582 -1.589,-10.566 -5.578,-10.566 -3.513,0 -4.7,1.962 -4.72,7.758 v 0.127 l 0.212,78.248 h 12.972 v 53.009 c -4.931,0.109 -6.933,0.152 -7.911,0.152 l -1.449,-0.024 h -0.443 c -1.178,0 -1.457,0.052 -2.66,0.705 v 23.841 l 1.536,107.092 c 0.266,18.146 6.53,29.574 19.485,35.493 1.751,0.792 1.966,0.944 3.381,2.401 L 358.18,924.018 c -3.818,-0.012 -5.636,-1.449 -6.784,-5.401 -0.281,-0.978 -0.509,-1.647 -0.708,-1.996 -0.086,-0.164 -0.303,-0.451 -0.647,-0.854 -1.014,0.038 -1.335,0.136 -1.95,0.591 -3.534,2.6 -5.459,3.999 -5.766,4.167 -0.649,0.385 -2.193,1.015 -4.606,1.908 -5.96,2.2 -8.119,2.693 -11.823,2.693 l -8.135,-0.168 -3.283,0.036 -2.084,0.02 c -12.056,0 -20.742,-4.928 -26.595,-15.052 -4.237,-7.355 -5.149,-12.543 -5.267,-30.082 L 279.56,731.22 c 0,-18.143 12.872,-30.333 32.07,-30.333 l 8.464,0.177 6.354,-0.042 c 6.765,0 10.936,0.857 15.138,3.156 1.712,0.928 1.892,0.99 3.666,1.239 l -0.197,-30.937 c -0.186,-29.62 -13.539,-45.683 -38.101,-45.854 -1.359,-0.024 -3.403,-0.04 -6.115,-0.072 l 4.945,-3.195 84.086,-51.234 6.476,-3.818 1.988,326.967 c 0.076,11.508 3.193,21.91 6.554,21.91 1.777,0 3.686,-3.816 3.896,-7.831 l 0.172,-3.152 0.341,-5.424 -1.088,-134.265 v -5.275 m 188.976,161.534 h -46.799 c -2.923,0 -7.027,-2.385 -9.068,-5.295 -1.459,-2.075 -1.566,-2.165 -2.332,-2.165 -0.73,0 -1.432,0.465 -3.02,1.996 -3.551,3.411 -9.68,5.151 -18.338,5.175 l -5.845,0.021 -4.642,0.132 c -12.784,0 -21.875,-4.724 -28.192,-14.648 -3.616,-5.675 -5.844,-12.565 -5.911,-18.209 l -0.012,-2.078 -0.141,-6.312 -0.15,-46.299 0.345,-11.656 0.099,-4.562 c 0.34,-16.311 10.164,-30.337 27.296,-38.974 l 24.736,-12.47 c 5.881,-2.965 8.574,-6.552 8.574,-11.44 0,-6.953 -4.999,-11.501 -12.639,-11.501 -1.188,0 -2.906,0.057 -5.111,0.15 -0.814,0.042 -1.523,0.059 -2.08,0.059 h -2.097 c -7.894,0 -16.453,3.862 -22.692,10.254 -4.712,4.818 -7.203,9.228 -10.799,19.198 l -0.305,-6.203 -0.148,-44.161 c 0,-14.373 12.603,-23.879 31.663,-23.879 h 0.085 l 48.307,0.206 c 13.832,0.057 25.963,12.573 26.721,27.583 l 0.14,2.607 0.345,4.516 v 154.115 c 0,1.152 0.057,2.471 0.145,3.937 0.637,9.235 1.916,15.4 3.695,17.785 l 7.677,10.311 0.493,1.807 m 236.89,-494.805 -0.385,0.842 -0.781,1.272 c -0.096,0.16 -0.265,0.501 -0.533,1.055 -2.354,4.89 -8.843,12.972 -14.042,17.479 l -8.823,7.658 c -1.134,0.975 -2.104,1.487 -2.85,1.487 -0.725,0 -1.699,-0.633 -3.291,-2.139 -3.965,-3.786 -7.691,-5.156 -13.934,-5.156 -2.722,0 -5.391,0.349 -6.979,0.899 -0.434,0.152 -2.333,1.093 -5.696,2.792 -1.239,0.632 -2.152,1.124 -2.706,1.465 -1.338,0.828 -2.453,1.265 -3.194,1.265 -0.305,0 -0.741,-0.269 -0.91,-0.563 -0.116,-0.185 -0.177,-0.375 -0.177,-0.552 0,-1.25 0.613,-3.032 1.756,-5.187 l 2.566,-4.782 c 0.132,-0.227 0.412,-0.744 0.897,-1.527 0.609,-1.01 1.03,-1.68 1.278,-2.007 l 1.828,-2.455 2.518,-3.556 9.388,-10.971 c 1.735,-2.045 4.618,-3.893 6.017,-3.893 l 0.281,0.015 36.453,5.91 1.319,0.649 m -61.971,52.224 c -2.137,-2.356 -3.079,-6.325 -3.079,-13.054 0,-4.79 6.077,-8.57 13.737,-8.57 4.718,0 8.979,1.893 12.939,5.772 -0.064,0.857 -0.141,1.411 -0.252,1.596 -0.33,0.591 -1.828,1.777 -4.357,3.441 l -11.553,7.618 c -2.563,1.686 -5.908,3.217 -7.035,3.217 l -0.4,-0.02 M 875.063,277.009 h 5.961 V 379.49 h -5.961 z m -341.562,534.499 1.01,-0.936 c 0.117,0.442 0.137,0.615 0.137,0.994 l 0.324,54.556 v 0.04 c 0,5.331 -2.26,8.558 -5.984,8.558 -3.984,0 -6.145,-3.607 -6.293,-10.516 l -0.537,-24.336 2.766,-13.591 c 0.209,-1.011 0.594,-2.123 1.135,-3.301 l 1.996,-4.568 0.958,-1.457 c 1.299,-1.982 2.024,-3.05 2.177,-3.242 0.403,-0.502 1.161,-1.225 2.311,-2.201 m 304.066,-19.556 0.115,-36.931 c 0.025,-5.95 1.816,-8.175 6.611,-8.175 4.124,0 6.838,3.169 6.914,8.041 l 0.192,12.416 -0.421,2.464 -0.365,2.174 c -0.781,4.73 -2.846,9.06 -6.092,12.906 l -5.938,6.99 -1.016,0.115 m -653.192,-555.375 14.802,0.212 v 2.357 l 1.18,93.681 c 0.838,-0.118 1.018,-0.192 1.573,-0.686 5.167,-4.547 12.569,-6.251 27.252,-6.225 16.048,0.02 24.969,3.381 29.13,10.979 2.75,5.008 4.794,13.586 4.893,20.477 l 2.197,161.772 c 0.176,12.995 7.626,22.768 19.924,26.151 0.689,0.196 1.167,0.368 1.417,0.521 0.361,0.227 0.607,0.345 0.721,0.365 0.403,0.058 0.521,0.116 0.521,0.227 0,0.152 -0.078,0.324 -0.217,0.501 l -71.041,-0.247 c -1.832,-3.731 -2.766,-6.63 -2.766,-8.656 l -0.669,-153.123 c 0,-0.779 -0.078,-1.986 -0.223,-3.592 -0.138,-1.339 -0.242,-2.4 -0.294,-3.213 -0.305,-3.609 -2.086,-5.459 -5.235,-5.459 -4.005,0 -6.242,3.251 -6.242,9.055 v 0.053 l 0.972,149.343 c 0.032,4.474 3.416,11.004 7.204,13.886 0.972,0.751 1.158,0.924 1.331,1.206 0.064,0.099 0.138,0.267 0.216,0.474 L 10.183,545.587 9.949,545.014 c 12.499,-0.88 19.545,-2.537 25.612,-6.07 8.772,-5.104 16.527,-16.469 17.786,-26.037 l 1.672,-12.593 0.32,-3.396 -1.014,-188.599 -0.254,-6.211 -0.012,-1.026 0.012,-1.354 0.044,-2.902 v -0.349 l -0.02,-1.055 -0.192,-3.432 v -0.082 c 0.016,-0.936 0.04,-1.597 0.04,-2.016 0,-1.95 -1.03,-2.832 -3.381,-2.832 -1.409,0 -3.436,0.176 -6.095,0.528 l -4.257,0.58 c -8.727,1.162 -20.632,9.568 -24.989,17.629 l -1.146,2.123 -1.679,2.729 c -0.651,1.054 -1.952,4.199 -3.902,9.436 -1.022,2.752 -1.826,5.275 -2.439,7.547 -1.183,4.435 -1.547,8.782 -1.986,23.748 -0.094,2.992 -0.266,7.492 -0.533,13.465 l -0.387,-0.383 -0.094,-2.889 -0.457,-125.822 181.777,0.826 m 203.663,209.639 0.152,5.604 0.267,64.442 c 0,18.822 -17.21,32.034 -41.721,32.034 h -0.262 l -37.676,-0.619 c -19.325,-0.333 -35.183,-15.84 -35.277,-34.541 l -0.702,-137.841 0.225,-4.047 -0.016,-1.363 0.034,-3.206 0.114,-4.818 c 0.325,-13.673 6.556,-25.075 17.018,-31.135 4.45,-2.577 7.188,-3.211 15.24,-3.587 7.661,-0.365 12.076,-0.537 13.23,-0.537 h 0.054 l 34.935,0.082 c 22.47,0.052 34.16,12.641 34.287,36.935 l 0.291,49.994 c 0,2.463 -0.651,5.729 -1.932,9.662 -0.858,2.632 -1.691,4.648 -2.503,5.993 -0.681,1.154 -1.868,2.663 -3.571,4.535 -4.409,4.895 -8.73,8.406 -14.996,12.262 l -23.782,14.634 c -9.519,5.84 -15.319,14.629 -15.319,23.187 0,9.806 7.943,15.55 21.554,15.533 24.678,-0.018 37.662,-14.749 39.253,-44.47 0.241,-4.677 0.323,-5.235 1.103,-8.733 M 324.6,419.569 v -0.172 -0.349 l -0.11,-0.776 -0.399,-35.75 v -0.098 c 0,-5.66 2.229,-8.624 6.466,-8.624 4.355,0 7.833,4.8 7.833,10.797 v 8.197 c -10e-4,11.116 -6.208,23.192 -13.79,26.775 m -64.541,110.566 0.318,0.15 h 0.152 v 0.256 l -0.234,0.225 -0.236,-0.225 v -0.406 M 117.878,922.319 c -1.646,0.916 -4.199,1.583 -8.887,2.274 -6.4,0.956 -7.43,1.017 -16.066,1.091 l -9.124,0.078 c -4.299,0.038 -8.905,0.058 -11.961,0.058 -4.217,0 -7.701,-0.046 -10.453,-0.098 L 40.268,925.221 C 28.303,924.932 25.919,924.419 19.474,920.713 13.403,917.216 8.134,912.049 4.891,906.404 1.317,900.198 0,894.698 0,885.992 v -0.114 L 1.103,624.292 c 0.074,-18.819 11.444,-39.312 26.688,-48.144 6.975,-4.022 14.174,-5.78 23.801,-5.78 h 0.114 l 328.189,1.393 1.17,0.491 -92.094,56.428 -2.674,0.074 -204.273,-0.83 -6.191,0.169 c -10.869,0.309 -13.799,3.956 -13.799,17.248 v 0.074 l 0.83,218.149 c 0,0.134 0.283,1.124 0.858,2.958 0.419,1.379 0.902,2.525 1.437,3.458 1.391,2.444 4.74,4.276 7.811,4.276 6.729,0 11.535,-6.544 11.535,-15.675 l -0.419,-122.26 -0.034,-5.079 c -0.118,-3.651 -0.599,-7.489 -1.399,-11.508 -0.788,-3.851 -1.912,-7.117 -3.321,-9.683 -2.327,-4.184 -5.845,-6.544 -13.755,-9.266 v -0.401 l 99.66,0.333 c -1.359,1.145 -1.551,1.242 -3.982,2.061 -10.306,3.517 -16.136,12.248 -16.136,24.123 l 0.038,187.199 -0.325,13.976 c -3.231,-6.558 -5.75,-8.069 -13.541,-8.069 -3.399,0 -5.522,0.291 -10.372,1.411 l -0.018,-0.016 -3.023,0.917 m 151.574,-115.178 0.76,0.419 c -0.647,0.604 -0.854,0.984 -0.854,1.563 v 0.094 l 0.148,2.447 0.156,82.247 c 0,18.307 -15.318,30.229 -38.818,30.229 H 185.38 c -10.326,0 -21.225,-5.938 -25.839,-14.1 -3.041,-5.352 -5.081,-15.13 -5.123,-24.323 l -0.553,-149.588 c 0,-24.083 10.043,-35.343 31.561,-35.343 h 49.7 c 23.073,0 33.565,12.54 33.793,40.341 l 0.533,66.014 m -51.804,-51.45 0.455,111.81 c 0,4.814 -2.044,7.257 -6.087,7.257 -4.516,0 -7.532,-4.471 -7.59,-11.209 l -0.702,-98.415 0.168,-7.892 c 0.134,-5.946 1.99,-8.257 6.628,-8.257 4.148,0 7.106,2.79 7.128,6.706 M 113.104,288.403 c 1.605,-0.862 2.139,-0.994 3.834,-0.994 h 3.979 l 3.796,-0.021 c 4.684,0 11.065,3.055 15.804,7.561 6.333,6.034 8.402,12.553 8.911,28.023 l 0.653,19.768 0.996,130.261 V 515.6 c 0,17.28 -6.65,28.286 -17.12,28.286 -10.751,0 -19.439,-10.025 -19.518,-22.496 l -1.335,-232.987 m 232.606,475.047 0.435,90.163 c 0,10.308 -3.263,16.88 -8.406,16.88 -2.303,0 -3.373,-1.084 -4.355,-4.388 l -0.796,-2.756 -0.731,-104.432 v -0.07 c 0,-6.571 2.201,-9.776 6.686,-9.776 4.7,0 7.011,3.271 7.011,9.971 v 0.241 l -0.016,0.962 0.172,3.205" id="path2" style="fill:#ffffff"/>
	<polygon points="615.247,0.003 652.085,0.003 668.753,171.677 652.149,169.111 " id="polygon4" style="fill:#ffffff"/>
	<polygon points="790.074,177.708 812.049,167.526 816.062,0 790.074,0 " id="polygon6" style="fill:#ffffff"/>
</g>
</svg>
